<svg width="900" height="280" viewBox="0 0 900 280" xmlns="http://www.w3.org/2000/svg">
  <defs>
    <radialGradient id="bg" cx="45%" cy="40%" r="75%">
      <stop offset="0%"   stop-color="#1e0045"/>
      <stop offset="50%"  stop-color="#0d001e"/>
      <stop offset="100%" stop-color="#060010"/>
    </radialGradient>
    <radialGradient id="nb1" cx="0%" cy="0%" r="100%">
      <stop offset="0%"   stop-color="#6d28d9" stop-opacity="0.55"/>
      <stop offset="100%" stop-color="#6d28d9" stop-opacity="0"/>
    </radialGradient>
    <radialGradient id="nb2" cx="0%" cy="0%" r="100%">
      <stop offset="0%"   stop-color="#4c1d95" stop-opacity="0.45"/>
      <stop offset="100%" stop-color="#4c1d95" stop-opacity="0"/>
    </radialGradient>
    <radialGradient id="nb3" cx="0%" cy="0%" r="100%">
      <stop offset="0%"   stop-color="#7e22ce" stop-opacity="0.28"/>
      <stop offset="100%" stop-color="#7e22ce" stop-opacity="0"/>
    </radialGradient>
    <radialGradient id="lb" cx="35%" cy="35%" r="75%">
      <stop offset="0%"   stop-color="#fffde7"/>
      <stop offset="45%"  stop-color="#ffca28"/>
      <stop offset="100%" stop-color="#e65100" stop-opacity="0.9"/>
    </radialGradient>
    <radialGradient id="aura" cx="50%" cy="50%" r="50%">
      <stop offset="0%"   stop-color="#ffd700" stop-opacity="0.55"/>
      <stop offset="50%"  stop-color="#fb923c" stop-opacity="0.18"/>
      <stop offset="100%" stop-color="#7c3aed" stop-opacity="0"/>
    </radialGradient>
    <radialGradient id="haura" cx="50%" cy="50%" r="50%">
      <stop offset="0%"   stop-color="#ffd700" stop-opacity="0.70"/>
      <stop offset="30%"  stop-color="#f59e0b" stop-opacity="0.32"/>
      <stop offset="65%"  stop-color="#9333ea" stop-opacity="0.10"/>
      <stop offset="100%" stop-color="#7c3aed" stop-opacity="0"/>
    </radialGradient>
    <linearGradient id="brd" x1="0%" y1="0%" x2="100%" y2="100%">
      <stop offset="0%"   stop-color="#ffd700" stop-opacity="0.70"/>
      <stop offset="50%"  stop-color="#9333ea" stop-opacity="0.50"/>
      <stop offset="100%" stop-color="#ffd700" stop-opacity="0.70"/>
    </linearGradient>
    <filter id="fg" x="-100%" y="-100%" width="300%" height="300%">
      <feGaussianBlur stdDeviation="4" result="b"/>
      <feMerge><feMergeNode in="b"/><feMergeNode in="b"/><feMergeNode in="SourceGraphic"/></feMerge>
    </filter>
    <filter id="hs" x="-120%" y="-120%" width="340%" height="340%">
      <feGaussianBlur stdDeviation="20" result="b"/>
      <feMerge><feMergeNode in="b"/><feMergeNode in="SourceGraphic"/></feMerge>
    </filter>
    <filter id="tg" x="-15%" y="-60%" width="130%" height="220%">
      <feGaussianBlur stdDeviation="6" result="b"/>
      <feMerge><feMergeNode in="b"/><feMergeNode in="b"/><feMergeNode in="SourceGraphic"/></feMerge>
    </filter>
    <filter id="sg2" x="-10%" y="-40%" width="120%" height="180%">
      <feGaussianBlur stdDeviation="3" result="b"/>
      <feMerge><feMergeNode in="b"/><feMergeNode in="SourceGraphic"/></feMerge>
    </filter>
    <filter id="sg" x="-150%" y="-150%" width="400%" height="400%">
      <feGaussianBlur stdDeviation="1.8" result="b"/>
      <feMerge><feMergeNode in="b"/><feMergeNode in="SourceGraphic"/></feMerge>
    </filter>
  </defs>

  <!-- Background -->
  <rect width="900" height="280" fill="url(#bg)" rx="14"/>

  <!-- Galaxy arms -->
  <path d="M -20,240 Q 180,40 450,150 T 920,30"
        fill="none" stroke="#6d28d9" stroke-width="55" opacity="0.07" stroke-linecap="round"/>
  <path d="M -20,200 Q 250,60 500,130 T 920,60"
        fill="none" stroke="#9333ea" stroke-width="32" opacity="0.055" stroke-linecap="round"/>

  <!-- Nebulae -->
  <ellipse cx="185" cy="195" rx="260" ry="170" fill="url(#nb1)"/>
  <ellipse cx="720" cy="75"  rx="210" ry="155" fill="url(#nb2)"/>
  <ellipse cx="450" cy="130" rx="320" ry="190" fill="url(#nb3)"/>

  <!-- White stars -->
  <g fill="white">
    <circle cx="18"  cy="15"  r="0.8" opacity="0.50"/>
    <circle cx="45"  cy="8"   r="1.0" opacity="0.60"/>
    <circle cx="82"  cy="22"  r="0.7" opacity="0.40"/>
    <circle cx="118" cy="11"  r="1.1" opacity="0.70"/>
    <circle cx="148" cy="29"  r="0.8" opacity="0.50"/>
    <circle cx="193" cy="7"   r="1.0" opacity="0.60"/>
    <circle cx="228" cy="19"  r="0.7" opacity="0.40"/>
    <circle cx="272" cy="14"  r="1.1" opacity="0.70"/>
    <circle cx="308" cy="26"  r="0.8" opacity="0.50"/>
    <circle cx="348" cy="9"   r="1.0" opacity="0.60"/>
    <circle cx="385" cy="21"  r="0.7" opacity="0.40"/>
    <circle cx="428" cy="13"  r="1.1" opacity="0.70"/>
    <circle cx="465" cy="24"  r="0.8" opacity="0.50"/>
    <circle cx="505" cy="8"   r="1.0" opacity="0.60"/>
    <circle cx="542" cy="18"  r="0.7" opacity="0.40"/>
    <circle cx="578" cy="11"  r="1.1" opacity="0.70"/>
    <circle cx="618" cy="27"  r="0.8" opacity="0.50"/>
    <circle cx="655" cy="7"   r="1.0" opacity="0.60"/>
    <circle cx="692" cy="20"  r="0.7" opacity="0.40"/>
    <circle cx="732" cy="13"  r="1.1" opacity="0.70"/>
    <circle cx="768" cy="25"  r="0.8" opacity="0.50"/>
    <circle cx="808" cy="9"   r="1.0" opacity="0.60"/>
    <circle cx="845" cy="18"  r="0.7" opacity="0.40"/>
    <circle cx="882" cy="12"  r="1.1" opacity="0.70"/>
    <circle cx="12"  cy="58"  r="0.8" opacity="0.40"/>
    <circle cx="55"  cy="72"  r="1.0" opacity="0.55"/>
    <circle cx="92"  cy="85"  r="0.7" opacity="0.45"/>
    <circle cx="128" cy="62"  r="1.1" opacity="0.65"/>
    <circle cx="165" cy="78"  r="0.8" opacity="0.40"/>
    <circle cx="202" cy="55"  r="1.0" opacity="0.55"/>
    <circle cx="238" cy="88"  r="0.7" opacity="0.45"/>
    <circle cx="275" cy="70"  r="1.1" opacity="0.65"/>
    <circle cx="315" cy="58"  r="0.8" opacity="0.40"/>
    <circle cx="352" cy="82"  r="1.0" opacity="0.55"/>
    <circle cx="388" cy="65"  r="0.7" opacity="0.45"/>
    <circle cx="423" cy="90"  r="1.1" opacity="0.65"/>
    <circle cx="498" cy="58"  r="1.0" opacity="0.55"/>
    <circle cx="535" cy="85"  r="0.7" opacity="0.45"/>
    <circle cx="572" cy="68"  r="1.1" opacity="0.65"/>
    <circle cx="608" cy="79"  r="0.8" opacity="0.40"/>
    <circle cx="645" cy="55"  r="1.0" opacity="0.55"/>
    <circle cx="682" cy="88"  r="0.7" opacity="0.45"/>
    <circle cx="718" cy="72"  r="1.1" opacity="0.65"/>
    <circle cx="755" cy="60"  r="0.8" opacity="0.40"/>
    <circle cx="792" cy="85"  r="1.0" opacity="0.55"/>
    <circle cx="828" cy="70"  r="0.7" opacity="0.45"/>
    <circle cx="865" cy="58"  r="1.1" opacity="0.65"/>
    <circle cx="895" cy="82"  r="0.8" opacity="0.40"/>
    <circle cx="22"  cy="175" r="0.7" opacity="0.30"/>
    <circle cx="65"  cy="188" r="0.9" opacity="0.38"/>
    <circle cx="108" cy="168" r="0.7" opacity="0.30"/>
    <circle cx="175" cy="195" r="0.9" opacity="0.38"/>
    <circle cx="248" cy="172" r="0.7" opacity="0.30"/>
    <circle cx="318" cy="190" r="0.9" opacity="0.38"/>
    <circle cx="535" cy="172" r="0.7" opacity="0.30"/>
    <circle cx="615" cy="185" r="0.9" opacity="0.38"/>
    <circle cx="688" cy="195" r="0.7" opacity="0.30"/>
    <circle cx="758" cy="172" r="0.9" opacity="0.38"/>
    <circle cx="835" cy="185" r="0.7" opacity="0.30"/>
    <circle cx="892" cy="168" r="0.9" opacity="0.38"/>
  </g>

  <!-- Gold stars -->
  <g fill="#ffd700">
    <circle cx="42"  cy="36" r="1.4" opacity="0.80" filter="url(#sg)"/>
    <circle cx="155" cy="50" r="1.3" opacity="0.70" filter="url(#sg)"/>
    <circle cx="295" cy="38" r="1.4" opacity="0.80" filter="url(#sg)"/>
    <circle cx="422" cy="52" r="1.3" opacity="0.70" filter="url(#sg)"/>
    <circle cx="568" cy="35" r="1.4" opacity="0.80" filter="url(#sg)"/>
    <circle cx="715" cy="48" r="1.3" opacity="0.70" filter="url(#sg)"/>
    <circle cx="858" cy="36" r="1.4" opacity="0.80" filter="url(#sg)"/>
    <circle cx="78"  cy="95" r="1.2" opacity="0.60"/>
    <circle cx="340" cy="92" r="1.2" opacity="0.60"/>
    <circle cx="650" cy="90" r="1.2" opacity="0.60"/>
    <circle cx="820" cy="93" r="1.2" opacity="0.60"/>
  </g>

  <!-- Sparkle crosses -->
  <g stroke="#ffd700" filter="url(#sg)">
    <line x1="70" y1="42" x2="74" y2="42" stroke-width="1.3" opacity="0.95"/>
    <line x1="72" y1="40" x2="72" y2="44" stroke-width="1.3" opacity="0.95"/>
    <line x1="326" y1="18" x2="330" y2="18" stroke-width="1.3" opacity="0.95"/>
    <line x1="328" y1="16" x2="328" y2="20" stroke-width="1.3" opacity="0.95"/>
    <line x1="646" y1="38" x2="650" y2="38" stroke-width="1.3" opacity="0.95"/>
    <line x1="648" y1="36" x2="648" y2="40" stroke-width="1.3" opacity="0.95"/>
    <line x1="813" y1="65" x2="817" y2="65" stroke-width="1.3" opacity="0.95"/>
    <line x1="815" y1="63" x2="815" y2="67" stroke-width="1.3" opacity="0.95"/>
  </g>

  <!-- FAR LEFT lantern -->
  <g transform="translate(92,158)" opacity="0.30">
    <g>
      <animateTransform attributeName="transform" type="translate"
        values="0,0;0,-5;0,0" dur="5.3s" begin="2s" repeatCount="indefinite"
        keyTimes="0;0.5;1" calcMode="spline" keySplines="0.45 0 0.55 1;0.45 0 0.55 1"/>
      <g transform="scale(0.68)">
        <ellipse rx="52" ry="52" fill="url(#aura)" opacity="0.60"/>
        <line x1="0" y1="-46" x2="0" y2="-34" stroke="#c8960a" stroke-width="1.5"/>
        <rect x="-12" y="-34" width="24" height="6" rx="2" fill="#c8960a"/>
        <rect x="-9" y="-28" width="18" height="38" rx="3" fill="url(#lb)" opacity="0.90"/>
        <line x1="-8" y1="-14" x2="8" y2="-14" stroke="#9a6800" stroke-width="0.6" opacity="0.45"/>
        <line x1="-8" y1="-4"  x2="8" y2="-4"  stroke="#9a6800" stroke-width="0.6" opacity="0.45"/>
        <line x1="-8" y1="6"   x2="8" y2="6"   stroke="#9a6800" stroke-width="0.6" opacity="0.45"/>
        <ellipse cx="0" cy="-9" rx="5" ry="9" fill="#fffde7" opacity="0.85" filter="url(#fg)"/>
        <rect x="-12" y="10" width="24" height="6" rx="2" fill="#c8960a"/>
      </g>
    </g>
  </g>

  <!-- LEFT lantern -->
  <g transform="translate(245,128)" opacity="0.68">
    <g>
      <animateTransform attributeName="transform" type="translate"
        values="0,0;0,-8;0,0" dur="4.6s" begin="1s" repeatCount="indefinite"
        keyTimes="0;0.5;1" calcMode="spline" keySplines="0.45 0 0.55 1;0.45 0 0.55 1"/>
      <g transform="scale(1.15)">
        <ellipse rx="52" ry="52" fill="url(#aura)" opacity="0.75"/>
        <line x1="0" y1="-46" x2="0" y2="-34" stroke="#c8960a" stroke-width="1.5"/>
        <rect x="-12" y="-34" width="24" height="6" rx="2" fill="#c8960a"/>
        <rect x="-9" y="-28" width="18" height="38" rx="3" fill="url(#lb)" opacity="0.90"/>
        <line x1="-8" y1="-14" x2="8" y2="-14" stroke="#9a6800" stroke-width="0.6" opacity="0.45"/>
        <line x1="-8" y1="-4"  x2="8" y2="-4"  stroke="#9a6800" stroke-width="0.6" opacity="0.45"/>
        <line x1="-8" y1="6"   x2="8" y2="6"   stroke="#9a6800" stroke-width="0.6" opacity="0.45"/>
        <ellipse cx="0" cy="-9" rx="5" ry="9" fill="#fffde7" opacity="0.85" filter="url(#fg)"/>
        <rect x="-12" y="10" width="24" height="6" rx="2" fill="#c8960a"/>
      </g>
    </g>
  </g>

  <!-- CENTER HERO lantern -->
  <g transform="translate(450,108)" opacity="1.0">
    <g>
      <animateTransform attributeName="transform" type="translate"
        values="0,0;0,-10;0,0" dur="4.0s" begin="0s" repeatCount="indefinite"
        keyTimes="0;0.5;1" calcMode="spline" keySplines="0.45 0 0.55 1;0.45 0 0.55 1"/>
      <g transform="scale(1.9)">
        <ellipse rx="65" ry="65" fill="url(#haura)" filter="url(#hs)" opacity="0.90"/>
        <ellipse rx="32" ry="32" fill="url(#aura)" opacity="0.80"/>
        <line x1="0" y1="-46" x2="0" y2="-34" stroke="#d4a017" stroke-width="2"/>
        <rect x="-13" y="-34" width="26" height="7" rx="3" fill="#c8960a"/>
        <rect x="-10" y="-27" width="20" height="40" rx="4" fill="url(#lb)" opacity="0.95"/>
        <line x1="-9" y1="-14" x2="9" y2="-14" stroke="#9a6800" stroke-width="0.7" opacity="0.50"/>
        <line x1="-9" y1="-4"  x2="9" y2="-4"  stroke="#9a6800" stroke-width="0.7" opacity="0.50"/>
        <line x1="-9" y1="6"   x2="9" y2="6"   stroke="#9a6800" stroke-width="0.7" opacity="0.50"/>
        <ellipse cx="0" cy="-9" rx="7" ry="12" fill="#fffde7" opacity="0.90" filter="url(#fg)"/>
        <rect x="-13" y="13" width="26" height="7" rx="3" fill="#c8960a"/>
      </g>
    </g>
  </g>

  <!-- RIGHT lantern -->
  <g transform="translate(655,123)" opacity="0.62">
    <g>
      <animateTransform attributeName="transform" type="translate"
        values="0,0;0,-7;0,0" dur="5.7s" begin="0.5s" repeatCount="indefinite"
        keyTimes="0;0.5;1" calcMode="spline" keySplines="0.45 0 0.55 1;0.45 0 0.55 1"/>
      <g transform="scale(1.10)">
        <ellipse rx="52" ry="52" fill="url(#aura)" opacity="0.70"/>
        <line x1="0" y1="-46" x2="0" y2="-34" stroke="#c8960a" stroke-width="1.5"/>
        <rect x="-12" y="-34" width="24" height="6" rx="2" fill="#c8960a"/>
        <rect x="-9" y="-28" width="18" height="38" rx="3" fill="url(#lb)" opacity="0.90"/>
        <line x1="-8" y1="-14" x2="8" y2="-14" stroke="#9a6800" stroke-width="0.6" opacity="0.45"/>
        <line x1="-8" y1="-4"  x2="8" y2="-4"  stroke="#9a6800" stroke-width="0.6" opacity="0.45"/>
        <line x1="-8" y1="6"   x2="8" y2="6"   stroke="#9a6800" stroke-width="0.6" opacity="0.45"/>
        <ellipse cx="0" cy="-9" rx="5" ry="9" fill="#fffde7" opacity="0.85" filter="url(#fg)"/>
        <rect x="-12" y="10" width="24" height="6" rx="2" fill="#c8960a"/>
      </g>
    </g>
  </g>

  <!-- FAR RIGHT lantern -->
  <g transform="translate(810,162)" opacity="0.28">
    <g>
      <animateTransform attributeName="transform" type="translate"
        values="0,0;0,-4;0,0" dur="6.4s" begin="1.5s" repeatCount="indefinite"
        keyTimes="0;0.5;1" calcMode="spline" keySplines="0.45 0 0.55 1;0.45 0 0.55 1"/>
      <g transform="scale(0.62)">
        <ellipse rx="52" ry="52" fill="url(#aura)" opacity="0.60"/>
        <line x1="0" y1="-46" x2="0" y2="-34" stroke="#c8960a" stroke-width="1.5"/>
        <rect x="-12" y="-34" width="24" height="6" rx="2" fill="#c8960a"/>
        <rect x="-9" y="-28" width="18" height="38" rx="3" fill="url(#lb)" opacity="0.90"/>
        <line x1="-8" y1="-14" x2="8" y2="-14" stroke="#9a6800" stroke-width="0.6" opacity="0.45"/>
        <line x1="-8" y1="-4"  x2="8" y2="-4"  stroke="#9a6800" stroke-width="0.6" opacity="0.45"/>
        <line x1="-8" y1="6"   x2="8" y2="6"   stroke="#9a6800" stroke-width="0.6" opacity="0.45"/>
        <ellipse cx="0" cy="-9" rx="5" ry="9" fill="#fffde7" opacity="0.85" filter="url(#fg)"/>
        <rect x="-12" y="10" width="24" height="6" rx="2" fill="#c8960a"/>
      </g>
    </g>
  </g>

  <!-- Title -->
  <text x="450" y="222"
        font-family="Georgia,'Times New Roman',serif"
        font-size="46" font-weight="bold"
        fill="#ffd700" text-anchor="middle"
        filter="url(#tg)" letter-spacing="3">&#10022; Tangled Lantern &#10022;</text>

  <!-- Subtitle -->
  <text x="450" y="257"
        font-family="'Courier New',Courier,monospace"
        font-size="14" fill="#c084fc"
        text-anchor="middle" opacity="0.92"
        filter="url(#sg2)" letter-spacing="1.5">Minecraft Java Edition  &#8226;  Fabric 1.21.1  &#8226;  Open Source</text>

  <!-- Border -->
  <rect x="1" y="1" width="898" height="278"
        fill="none" stroke="url(#brd)" stroke-width="1.8" rx="14" opacity="0.55"/>
</svg>
